<?xml version="1.0" encoding="UTF-8"?>
<svg xmlns="http://www.w3.org/2000/svg" xmlns:xlink="http://www.w3.org/1999/xlink" width="30px" height="30px" viewBox="0 0 30 30" version="1.1">
<g id="surface1">
<path style=" stroke:none;fill-rule:evenodd;fill:rgb(85, 85, 85);fill-opacity:1;" d="M 14.996094 10.9375 C 12.75 10.9375 10.929688 12.757812 10.929688 15 C 10.929688 17.242188 12.75 19.0625 14.996094 19.0625 C 17.234375 19.0625 19.054688 17.242188 19.054688 15 C 19.054688 12.757812 17.234375 10.9375 14.996094 10.9375 Z M 14.996094 12.8125 C 16.199219 12.8125 17.179688 13.789062 17.179688 15 C 17.179688 16.210938 16.199219 17.1875 14.996094 17.1875 C 13.785156 17.1875 12.804688 16.210938 12.804688 15 C 12.804688 13.789062 13.785156 12.8125 14.996094 12.8125 Z M 14.996094 12.8125 "/>
<path style=" stroke:none;fill-rule:evenodd;fill:rgb(85, 85, 85);fill-opacity:1;" d="M 10.929688 6.34375 C 10.929688 6.675781 10.753906 6.984375 10.460938 7.152344 C 10.171875 7.316406 9.816406 7.316406 9.523438 7.152344 C 9.3125 7.03125 9.109375 6.910156 8.90625 6.792969 C 8.257812 6.421875 7.492188 6.320312 6.773438 6.515625 C 6.050781 6.707031 5.4375 7.175781 5.0625 7.824219 C 4.667969 8.507812 4.210938 9.304688 3.816406 9.988281 C 3.441406 10.636719 3.34375 11.40625 3.535156 12.121094 C 3.726562 12.84375 4.195312 13.457031 4.84375 13.832031 C 5.042969 13.945312 5.25 14.066406 5.460938 14.1875 C 5.75 14.351562 5.929688 14.667969 5.929688 15 C 5.929688 15.332031 5.75 15.648438 5.460938 15.8125 C 5.25 15.933594 5.042969 16.054688 4.84375 16.167969 C 4.195312 16.542969 3.726562 17.15625 3.535156 17.878906 C 3.34375 18.59375 3.441406 19.363281 3.816406 20.011719 C 4.210938 20.695312 4.667969 21.492188 5.0625 22.175781 C 5.4375 22.824219 6.050781 23.292969 6.773438 23.484375 C 7.492188 23.679688 8.257812 23.578125 8.90625 23.207031 C 9.109375 23.089844 9.3125 22.96875 9.523438 22.847656 C 9.816406 22.683594 10.171875 22.683594 10.460938 22.847656 C 10.753906 23.015625 10.929688 23.324219 10.929688 23.65625 C 10.929688 23.902344 10.929688 24.144531 10.929688 24.375 C 10.929688 25.121094 11.226562 25.835938 11.757812 26.363281 C 12.28125 26.890625 13 27.1875 13.742188 27.1875 L 16.242188 27.1875 C 16.992188 27.1875 17.703125 26.890625 18.234375 26.363281 C 18.757812 25.835938 19.054688 25.121094 19.054688 24.375 L 19.054688 23.65625 C 19.054688 23.324219 19.234375 23.015625 19.523438 22.847656 C 19.8125 22.683594 20.171875 22.683594 20.460938 22.847656 C 20.671875 22.96875 20.882812 23.089844 21.078125 23.207031 C 21.726562 23.578125 22.496094 23.679688 23.21875 23.484375 C 23.933594 23.292969 24.554688 22.824219 24.921875 22.175781 C 25.316406 21.492188 25.777344 20.695312 26.175781 20.011719 C 26.546875 19.363281 26.648438 18.59375 26.457031 17.878906 C 26.257812 17.15625 25.789062 16.542969 25.144531 16.167969 C 24.945312 16.054688 24.734375 15.933594 24.523438 15.8125 C 24.234375 15.648438 24.054688 15.332031 24.054688 15 C 24.054688 14.667969 24.234375 14.351562 24.523438 14.1875 C 24.734375 14.066406 24.945312 13.945312 25.144531 13.832031 C 25.789062 13.457031 26.257812 12.84375 26.457031 12.121094 C 26.648438 11.40625 26.546875 10.636719 26.175781 9.988281 C 25.777344 9.304688 25.316406 8.507812 24.921875 7.824219 C 24.554688 7.175781 23.933594 6.707031 23.21875 6.515625 C 22.496094 6.320312 21.726562 6.421875 21.078125 6.792969 C 20.882812 6.910156 20.671875 7.03125 20.460938 7.152344 C 20.171875 7.316406 19.8125 7.316406 19.523438 7.152344 C 19.234375 6.984375 19.054688 6.675781 19.054688 6.34375 C 19.054688 6.097656 19.054688 5.855469 19.054688 5.625 C 19.054688 4.878906 18.757812 4.164062 18.234375 3.636719 C 17.703125 3.109375 16.992188 2.8125 16.242188 2.8125 L 13.742188 2.8125 C 13 2.8125 12.28125 3.109375 11.757812 3.636719 C 11.226562 4.164062 10.929688 4.878906 10.929688 5.625 Z M 12.804688 6.34375 L 12.804688 5.625 C 12.804688 5.375 12.90625 5.136719 13.082031 4.964844 C 13.257812 4.785156 13.496094 4.6875 13.742188 4.6875 L 16.242188 4.6875 C 16.492188 4.6875 16.730469 4.785156 16.90625 4.964844 C 17.082031 5.136719 17.179688 5.375 17.179688 5.625 L 17.179688 6.34375 C 17.179688 7.34375 17.71875 8.273438 18.585938 8.773438 C 19.457031 9.277344 20.53125 9.277344 21.398438 8.773438 C 21.609375 8.652344 21.820312 8.535156 22.015625 8.417969 C 22.234375 8.292969 22.492188 8.257812 22.730469 8.324219 C 22.972656 8.390625 23.175781 8.546875 23.300781 8.761719 C 23.695312 9.445312 24.15625 10.242188 24.546875 10.925781 C 24.675781 11.140625 24.707031 11.394531 24.640625 11.640625 C 24.578125 11.878906 24.421875 12.085938 24.207031 12.207031 C 24.007812 12.324219 23.796875 12.441406 23.585938 12.5625 C 22.714844 13.0625 22.179688 13.996094 22.179688 15 C 22.179688 16.003906 22.714844 16.9375 23.585938 17.4375 C 23.796875 17.558594 24.007812 17.675781 24.207031 17.792969 C 24.421875 17.914062 24.578125 18.121094 24.640625 18.359375 C 24.707031 18.605469 24.675781 18.859375 24.546875 19.074219 C 24.15625 19.757812 23.695312 20.554688 23.300781 21.238281 C 23.175781 21.453125 22.972656 21.609375 22.730469 21.675781 C 22.492188 21.742188 22.234375 21.707031 22.015625 21.582031 C 21.820312 21.464844 21.609375 21.347656 21.398438 21.226562 C 20.53125 20.722656 19.457031 20.722656 18.585938 21.226562 C 17.71875 21.726562 17.179688 22.65625 17.179688 23.65625 C 17.179688 23.902344 17.179688 24.144531 17.179688 24.375 C 17.179688 24.625 17.082031 24.863281 16.90625 25.035156 C 16.730469 25.214844 16.492188 25.3125 16.242188 25.3125 L 13.742188 25.3125 C 13.496094 25.3125 13.257812 25.214844 13.082031 25.035156 C 12.90625 24.863281 12.804688 24.625 12.804688 24.375 L 12.804688 23.65625 C 12.804688 22.65625 12.273438 21.726562 11.398438 21.226562 C 10.527344 20.722656 9.460938 20.722656 8.585938 21.226562 C 8.375 21.347656 8.171875 21.464844 7.96875 21.582031 C 7.753906 21.707031 7.496094 21.742188 7.257812 21.675781 C 7.015625 21.609375 6.8125 21.453125 6.6875 21.238281 C 6.289062 20.554688 5.835938 19.757812 5.4375 19.074219 C 5.316406 18.859375 5.277344 18.605469 5.34375 18.359375 C 5.410156 18.121094 5.5625 17.914062 5.78125 17.792969 C 5.980469 17.675781 6.1875 17.558594 6.398438 17.4375 C 7.269531 16.9375 7.804688 16.003906 7.804688 15 C 7.804688 13.996094 7.269531 13.0625 6.398438 12.5625 C 6.1875 12.441406 5.980469 12.324219 5.78125 12.207031 C 5.5625 12.085938 5.410156 11.878906 5.34375 11.640625 C 5.277344 11.394531 5.316406 11.140625 5.4375 10.925781 C 5.835938 10.242188 6.289062 9.445312 6.6875 8.761719 C 6.8125 8.546875 7.015625 8.390625 7.257812 8.324219 C 7.496094 8.257812 7.753906 8.292969 7.96875 8.417969 C 8.171875 8.535156 8.375 8.652344 8.585938 8.773438 C 9.460938 9.277344 10.527344 9.277344 11.398438 8.773438 C 12.273438 8.273438 12.804688 7.34375 12.804688 6.34375 Z M 12.804688 6.34375 "/>
</g>
</svg>
